<svg width="457" height="359" viewBox="0 0 457 359" fill="none" xmlns="http://www.w3.org/2000/svg">
<path opacity="0.1" fill-rule="evenodd" clip-rule="evenodd" d="M178.527 0C265.315 0 337.628 62.0228 353.708 144.229C347.187 140.227 339.847 137.73 331.311 137.73C328.204 137.73 325.132 138.003 322.093 138.516C304.578 75.6384 246.947 29.5233 178.527 29.5233C96.1773 29.5233 29.4302 96.3696 29.4302 178.85C29.4302 260.304 94.5726 326.535 175.523 328.108C173.474 337.858 173.781 347.916 177.674 357.632C79.482 357.187 0 277.306 0 178.816C0 80.0515 79.9258 0 178.527 0ZM305.466 186.581C309.563 180.663 313.046 174.54 319.362 170.605C323.015 168.348 327.044 167.253 331.345 167.253C340.769 167.253 350.431 180.868 355.45 187.71L452.48 320.103C458.626 328.485 458.319 338.645 452.685 347.163C448.964 352.774 441.76 359 434.658 359H228.067C219.326 359 209.972 356.605 205.704 348.155C200.31 337.448 207.001 324.243 213.249 315.451C227.008 296.088 240.87 276.793 254.731 257.465C265.93 241.831 277.163 226.197 288.395 210.563C294.029 202.592 299.901 194.621 305.466 186.581ZM330.355 314.459C337.389 314.459 343.124 320.172 343.124 327.253C343.124 334.3 337.423 340.048 330.355 340.048C323.322 340.048 317.586 334.335 317.586 327.253C317.586 320.172 323.288 314.459 330.355 314.459ZM330.355 213.299C337.525 213.299 343.432 219.184 343.432 226.402C343.432 250.212 340.53 275.014 340.53 296.806C340.53 302.417 335.955 307.001 330.355 307.001C324.756 307.001 320.181 302.417 320.181 296.806C320.181 275.014 317.279 250.246 317.279 226.402C317.279 219.218 323.151 213.299 330.355 213.299ZM178.527 54.3255C184.843 54.3255 190.033 59.5254 190.033 65.8543V166.876C193.14 169.887 195.086 174.129 195.086 178.816C195.086 187.984 187.677 195.408 178.527 195.408C174.328 195.408 170.504 193.834 167.568 191.268H104.44C98.1233 191.268 92.9338 186.068 92.9338 179.739C92.9338 173.411 98.1233 168.211 104.44 168.211H165.792C166.168 167.732 166.612 167.287 167.021 166.876V65.8543C167.021 59.5254 172.211 54.3255 178.527 54.3255Z" fill="#003B4A"/>
</svg>
