<svg width="79" height="20" viewBox="0 0 79 20" fill="none" xmlns="http://www.w3.org/2000/svg">
<path d="M24.6281 19.2961C22.1526 19.2961 20.2853 18.6595 19.0263 17.4005C17.7673 16.1274 17.1449 14.2177 17.1449 11.6714C17.1449 8.9129 17.7673 6.96075 19.0263 5.81493C20.2853 4.6691 22.1526 4.08911 24.6281 4.08911C26.2549 4.08911 27.6271 4.32959 28.7446 4.8247C29.8763 5.31982 30.7251 6.12614 31.3192 7.22953C31.8992 8.33292 32.1963 9.81825 32.1963 11.6572C32.1963 14.2035 31.5455 16.1132 30.23 17.3864C28.9285 18.6737 27.0613 19.2961 24.6281 19.2961ZM24.6281 15.3352C25.1091 15.3352 25.5476 15.2079 25.9437 14.9533C26.3398 14.6986 26.6369 14.3025 26.8491 13.765C27.0613 13.2274 27.1744 12.5201 27.1744 11.6714C27.1744 10.667 27.0613 9.90313 26.8491 9.36558C26.6369 8.82803 26.3257 8.47438 25.9437 8.29048C25.5476 8.10658 25.1091 8.00756 24.6281 8.00756C24.1047 8.00756 23.6521 8.10658 23.2843 8.29048C22.9165 8.47438 22.6336 8.84217 22.4497 9.36558C22.2658 9.90313 22.1667 10.667 22.1667 11.6714C22.1667 13.0011 22.3789 13.9347 22.7892 14.5006C23.2277 15.0523 23.836 15.3352 24.6281 15.3352Z" fill="#003B4A"/>
<path d="M34.7285 5.88563C35.0256 5.71588 35.4924 5.53198 36.1148 5.33394C36.7372 5.13589 37.4445 4.952 38.2084 4.78224C38.9865 4.61249 39.7645 4.47103 40.5425 4.35786C41.3205 4.24469 42.0279 4.18811 42.6644 4.18811C43.8951 4.18811 44.9702 4.32957 45.9039 4.62664C46.8375 4.90956 47.5589 5.41881 48.0823 6.14026C48.6057 6.86171 48.8604 7.86608 48.8604 9.16751V18.8717H43.7678V10.4124C43.7678 10.0446 43.7112 9.7192 43.6122 9.45043C43.5132 9.18166 43.3576 8.96947 43.1595 8.81386C42.9615 8.65825 42.721 8.54508 42.4381 8.46021C42.1552 8.38948 41.8157 8.34704 41.4479 8.34704C41.0942 8.34704 40.7406 8.40363 40.4011 8.50265C40.0616 8.60167 39.8494 8.70069 39.8069 8.79971V18.8858H34.7144V5.88563H34.7285Z" fill="#003B4A"/>
<path d="M58.6211 19.579C56.6972 19.579 55.3109 19.1546 54.448 18.32C53.5851 17.4854 53.1465 16.2971 53.1465 14.7694V8.43194H51.251V4.65495H53.1465V0.793091H58.5079V4.65495H61.4078V8.43194H58.5079V14.3025C58.5079 14.6562 58.6069 14.9108 58.805 15.0806C59.003 15.2503 59.2859 15.3352 59.6537 15.3352C59.9083 15.3352 60.2196 15.2645 60.5449 15.1372C60.8844 15.0098 61.1673 14.8401 61.4078 14.6279V18.9141C60.941 19.1688 60.4742 19.3527 59.9932 19.4517C59.5264 19.5366 59.0737 19.579 58.6211 19.579Z" fill="#003B4A"/>
<path d="M71.3667 19.296C70.0087 19.296 68.8063 19.098 67.7453 18.7019C66.6985 18.3058 65.8639 17.6692 65.2556 16.8063C64.6473 15.9434 64.3503 14.7976 64.3503 13.383V4.65491H69.4428V13.0718C69.4428 13.7367 69.5985 14.2459 69.8955 14.5996C70.1926 14.9391 70.7018 15.123 71.4091 15.123C72.1164 15.123 72.6257 14.9532 72.9228 14.5996C73.2198 14.2601 73.3754 13.7508 73.3754 13.0718V4.65491H78.1002V13.3689C78.1002 15.4766 77.4919 16.9902 76.2754 17.9097C75.0305 18.8434 73.4037 19.296 71.3667 19.296Z" fill="#003B4A"/>
<path d="M4.7955 14.7835V9.98796H9.591V5.22075V5.17831H4.7955V0.382812H2.3058C1.03266 0.382812 0 1.41547 0 2.68861V5.17831V9.97381V14.7693V17.3297C0 18.5604 1.00437 19.5648 2.23507 19.5648H4.7955H9.591H12.1656C13.3963 19.5648 14.4006 18.5604 14.4006 17.3297V14.7693H9.60515H4.7955V14.7835Z" fill="#003B4A"/>
<path d="M14.4007 9.98792H9.60516V14.7834H14.4007V9.98792Z" fill="#003B4A"/>
<path d="M12.7173 5.26311C12.5334 5.22067 12.3495 5.19238 12.1514 5.19238H9.60516V9.94545V9.98788H14.4007V9.94545V7.54062C14.4007 6.47967 13.6934 5.56018 12.7173 5.26311Z" fill="#00C08B"/>
</svg>
